<svg width="50.000000" height="50.151611" viewBox="0 0 50 50.1516" fill="none" xmlns="http://www.w3.org/2000/svg" xmlns:xlink="http://www.w3.org/1999/xlink">
	<desc>
			Created with Pixso.
	</desc>
	<defs/>
	<rect id="History" width="50.000000" height="50.000000" transform="translate(0.000000 0.151611)" fill="#FFFFFF" fill-opacity="0"/>
	<path id="Форма 7" d="M25 13.15L25 26.65" stroke="#FFFFFF" stroke-opacity="1.000000" stroke-width="3.000000"/>
	<path id="Форма 8" d="M25 26.15L31 33.15" stroke="#FFFFFF" stroke-opacity="1.000000" stroke-width="3.000000"/>
	<circle id="Эллипс 3" cx="25.000000" cy="26.151611" r="3.000000" fill="#FFFFFF" fill-opacity="1.000000"/>
	<path id="Форма 9" d="M6 0.15L7.41 14.11" stroke="#FFFFFF" stroke-opacity="1.000000" stroke-width="3.000000"/>
	<path id="Форма 10 (Граница)" d="M20.21 14.13L6 14.15L6.5 11.65L20 11.14L20.21 14.13Z" fill="#FFFFFF" fill-opacity="1.000000" fill-rule="evenodd"/>
	<path id="Убрать верхний слой" d="M0.0196533 24.1516C0.0065918 24.4833 0 24.8167 0 25.1516C0 38.9587 11.1929 50.1516 25 50.1516C38.8071 50.1516 50 38.9587 50 25.1516C50 11.3445 38.8071 0.151611 25 0.151611C18.4349 0.151611 12.4608 2.68219 8 6.82117L8 11.6516L8.91364 11.6516C12.7659 7.06616 18.5425 4.15161 25 4.15161C36.598 4.15161 46 13.5536 46 25.1516C46 36.7496 36.598 46.1516 25 46.1516C13.402 46.1516 4 36.7496 4 25.1516C4 24.8164 4.00787 24.483 4.02338 24.1516L0.0196533 24.1516Z" clip-rule="evenodd" fill="#FFFFFF" fill-opacity="1.000000" fill-rule="evenodd"/>
</svg>
