<svg xmlns="http://www.w3.org/2000/svg" viewBox="0 0 230.11 239.51"><g id="Слой_2" data-name="Слой 2"><g id="Слой_3" data-name="Слой 3"><g id="KptubeLogo"><path d="M112.43,134.75H82.73L36.88,75.18a24.64,24.64,0,0,1-2-2.92,22.41,22.41,0,0,1-1.55-3.19h-.47v65.68H0V0H32.83V62.87h.47c.38-.76.88-1.63,1.51-2.64S36.15,58.1,37,56.85L81,0H108.1L55.86,64.09Z"/><path d="M152.64,87.86v46.89H129.81V0H182q23.49,0,35.8,10.85t12.31,31.62q0,20.2-13.86,32.8T178.9,87.86Zm0-69.16V69.26h24.29q14.37,0,21.7-6.58T206,43.51q0-12.49-7-18.66T178,18.7Z"/><path d="M35.58,237.16a20.45,20.45,0,0,1-4.48,1.63,22,22,0,0,1-5.16.55q-6.32,0-9.9-3.82t-3.59-11.21v-38.5H2.12v-6.43H12.45V164.46l7.35-2.41v17.33H34.94v6.43H19.8v37.64q0,5,1.86,7.31A6.69,6.69,0,0,0,27.14,233a12.56,12.56,0,0,0,3.5-.46,14.2,14.2,0,0,0,2.87-1.15Z"/><path d="M92.84,238.13H85.49v-10h-.23a21.1,21.1,0,0,1-7.63,8.52,20.49,20.49,0,0,1-10.9,2.84q-10.44,0-15.66-6.4t-5.22-19.19V179.38h7.34v33.11q0,10.6,3.73,15.63t11.53,5a15.45,15.45,0,0,0,12.28-5.53q4.77-5.55,4.76-14.66V179.38h7.35Z"/><path d="M119.4,229.13h-.23v9h-7.34v-87h7.34v39.42h.23A23.18,23.18,0,0,1,140.52,178q11.25,0,17.61,7.8t6.37,21.06q0,14.74-7.26,23.72t-19.3,9a21.64,21.64,0,0,1-10.82-2.61A21.22,21.22,0,0,1,119.4,229.13Zm-.23-23.24v7.8a19.83,19.83,0,0,0,5.14,13.74,17.09,17.09,0,0,0,13.34,5.71,16.58,16.58,0,0,0,14-7.11q5.25-7.12,5.25-19.22,0-10.5-4.85-16.5a15.9,15.9,0,0,0-13.05-6q-9.24,0-14.55,6.32A22.9,22.9,0,0,0,119.17,205.89Z"/><path d="M225.26,209.9H182.75q.1,11.78,5.62,17.5t14.69,5.74a27.28,27.28,0,0,0,8.29-1.32,28.7,28.7,0,0,0,8.18-4.24l3.67,5.28a36.5,36.5,0,0,1-9.9,5,35.83,35.83,0,0,1-11,1.61q-12.06,0-19.57-7.63t-7.57-22.95q0-13.55,7.43-22.26a24.14,24.14,0,0,1,19.3-8.72q11.19,0,17.3,7.6t6.11,20.85Zm-7.57-6.25q-.23-9.12-4.45-14.23t-11.62-5.11a16.91,16.91,0,0,0-12.56,5.14q-5.06,5.13-6.14,14.2Z"/></g></g></g></svg>