<?xml version="1.0" encoding="UTF-8"?>
<svg id="Layer_2" data-name="Layer 2" xmlns="http://www.w3.org/2000/svg" viewBox="0 0 78 80">
  <g id="Layer_1-2" data-name="Layer 1">
    <g>
      <path d="M39,43c19.73,0,35.9,15.52,36.95,35H2.05c1.04-19.48,17.22-35,36.95-35M39,41C17.46,41,0,58.46,0,80h78c0-21.54-17.46-39-39-39h0Z"/>
      <path d="M39,2c9.37,0,17,7.63,17,17s-7.63,17-17,17-17-7.63-17-17S29.63,2,39,2M39,0c-10.49,0-19,8.51-19,19s8.51,19,19,19,19-8.51,19-19S49.49,0,39,0h0Z"/>
    </g>
  </g>
</svg>